<?xml version="1.0" encoding="utf-8" ?><svg xmlns="http://www.w3.org/2000/svg" xmlns:xlink="http://www.w3.org/1999/xlink" width="1278" height="1363" viewBox="0 0 1278 1363"><clipPath id="cl_3"><rect y="0.00018310547" width="1278" height="1363"/></clipPath><g clip-path="url(#cl_3)"><path fill="white" transform="matrix(-1.85217 0 0 1.8519 1579.9 -277.785)" d="M204.635 401.802C204.547 395.853 204.687 389.677 204.701 383.751C204.638 371.488 204.285 360.979 210.282 349.833C218.021 335.449 234.004 329.414 247.728 321.66L304.551 289.751L368.589 252.967C379.902 246.367 391.186 239.593 402.64 233.28C406.185 231.327 413.048 228.436 416.695 230.796C418.649 232.06 421.386 233.806 422.215 236.07C431.307 260.899 440.966 286.157 450.359 310.797L472.101 369.406C474.972 377.071 480.256 388.578 482.342 395.851C488.375 412.269 495.144 428.41 501.319 444.776C502.657 448.325 503.578 450.897 504.213 454.664C502.195 460.785 491.678 478.692 487.874 485.692L469.327 519.716C466.563 524.776 463.133 531.58 460.191 536.373C458.101 540.562 453.316 547.126 455.008 551.509C462.574 571.107 470.347 590.656 477.415 610.443C479.758 617.005 483.835 625.954 485.333 632.503C486.833 635.054 491.376 648.145 492.715 651.669C498.269 666.294 504.055 681.143 509.238 695.9C510.154 698.429 515.218 711.554 515.289 713.299C517.536 717.765 519.751 724.23 521.562 729.06L531.521 755.742C536.266 768.445 541.444 781.208 545.549 793.801C549.883 807.093 558.832 822.853 541.091 830.929C525.878 837.854 502.107 838.923 485.816 833.939C476.363 830.411 458.053 820.158 449.032 814.834C427.647 804.371 404.455 790.168 383.481 778.623C350.493 760.464 316.777 742.385 284.058 723.787C275.796 719.584 265.345 713.696 256.993 708.958C243.598 700.945 227.967 694.628 216.233 684.302C212.429 680.954 207.044 671.898 205.98 666.943C204.535 660.218 205.119 651.668 204.983 644.689C204.467 618.391 204.626 592.039 204.671 565.733C204.176 552.309 204.458 534.323 204.621 520.81C204.486 516.407 204.58 511.836 204.61 507.418C204.219 494.853 204.542 480.529 204.54 467.851L204.635 401.802Z"/><path fill="white" transform="matrix(-1.85217 0 0 1.8519 1579.9 -277.785)" d="M204.635 401.802C204.547 395.853 204.687 389.677 204.701 383.751C204.638 371.488 204.285 360.979 210.282 349.833C218.021 335.449 234.004 329.414 247.728 321.66L304.551 289.751L368.589 252.967C379.902 246.367 391.186 239.593 402.64 233.28C406.185 231.327 413.048 228.436 416.695 230.796C418.649 232.06 421.386 233.806 422.215 236.07C431.307 260.899 440.966 286.157 450.359 310.797L472.101 369.406C474.972 377.071 480.256 388.578 482.342 395.851C488.375 412.269 495.144 428.41 501.319 444.776C502.657 448.325 503.578 450.897 504.213 454.664C502.195 460.785 491.678 478.692 487.874 485.692L469.327 519.716C466.563 524.776 463.133 531.58 460.191 536.373C456.818 537.554 456.349 543.467 453.35 546.346C453.277 544.678 453.328 544.769 452.645 543.26C450.141 542.615 450.587 541.097 449.416 540.457C442.636 536.75 434.151 533.173 427.228 529.785C425.559 528.967 417.189 529.232 414.722 528.876C409.093 528.064 403.772 527.098 398.131 527.218C392.48 527.12 389.616 529.041 386.71 529.083C376.79 529.227 351.691 534.535 344.16 532.605C342.392 533.18 343.053 533.074 341.375 532.947C332.175 532.252 321.804 533.721 312.738 533.694C309.483 533.685 298.308 533.556 295.569 533.167C284.973 531.663 288.646 530.591 278.216 532.182C278.003 532.177 277.791 532.173 277.579 532.168C257.606 529.211 237.739 525.858 217.704 523.258C214.624 522.858 208.413 522.843 205.939 521.912C205.02 524.007 205.888 582.514 205.572 588.893C204.737 587.275 205.271 569.565 204.671 565.733C204.176 552.309 204.458 534.323 204.621 520.81C204.486 516.407 204.58 511.836 204.61 507.418C204.219 494.853 204.542 480.529 204.54 467.851L204.635 401.802Z"/><path fill="white" transform="matrix(-1.85217 0 0 1.8519 1579.9 -277.785)" d="M204.635 401.802C204.547 395.853 204.687 389.677 204.701 383.751C204.638 371.488 204.285 360.979 210.282 349.833C218.021 335.449 234.004 329.414 247.728 321.66L304.551 289.751L368.589 252.967C379.902 246.367 391.186 239.593 402.64 233.28C406.185 231.327 413.048 228.436 416.695 230.796C418.649 232.06 421.386 233.806 422.215 236.07C431.307 260.899 440.966 286.157 450.359 310.797L472.101 369.406C474.972 377.071 480.256 388.578 482.342 395.851L481.544 395.5C479.429 391.652 477.765 386.457 476.093 382.335C472.343 373.085 469.156 363.416 465.655 354.124C464.514 356.477 456.18 358.983 453.925 358.296L451.377 357.528C450.576 357.283 450.91 357.333 450.246 357.306C449.554 358.553 450.062 358.197 448.911 358.661L448.175 358.464C444.934 357.621 443.684 357.819 440.673 359.05C433.481 361.99 427.146 359.77 419.875 359.991C416.164 360.104 411.372 361.817 407.394 361.344C404.004 361.099 399.75 359.162 396.253 358.933L395.876 360.17L395.295 360.37C395.097 360.264 392.987 359.132 392.987 359.132C387.086 359.58 380.501 359.948 374.755 361.237C371.6 361.945 368.198 365.323 364.574 365.717C355.337 368.295 347.8 367.985 338.634 370.383L338.198 371.719C327.432 375.062 318.544 377.537 307.289 378.712C305.855 378.862 295.259 379.418 295.631 379.195L295.526 380.882C292.601 380.814 287.5 380.847 284.399 380.834C282.696 380.827 284.957 378.291 282.349 379.788L281.932 380.855C278.107 381.271 274.986 382.75 270.9 383.793C266.009 385.041 258.938 384.569 254.633 386.976C252.155 388.362 251.59 388.399 248.631 388.311C238.454 388.427 228.89 390.972 218.939 392.253C218.123 392.358 211.311 391.468 209.629 391.348C208.432 389.874 208.34 389.275 207.733 387.512C206.75 386.736 207.262 386.837 206.239 386.804C205.264 389.193 206.136 396.085 204.635 401.802Z"/><path fill="white" transform="matrix(-1.85217 0 0 1.8519 1579.9 -277.785)" d="M207.372 507.032C207.419 499.75 207.075 484.037 207.751 477.412C208.509 481.634 207.446 492.187 210.202 496.616L210.711 496.452C211.314 493.948 212.003 493.954 214.099 491.962C216.32 491.111 219.622 493.217 221.834 493.881C222.858 494.188 227.535 492.304 228.134 492.299C232.991 492.262 234.944 494.778 238.424 490.2L239.374 490.303C240.571 492.685 239.926 495.202 238.771 497.439L239.125 498.26C240.953 498.22 242.783 497.677 243.666 498.505L243.268 498.933C242.218 500.079 241.189 501.278 240.187 502.467C242.449 502.341 244.65 502.191 246.908 502.01C247.085 503.244 247.062 502.83 246.864 504.08C249.75 505.014 250.504 502.755 251.689 504.538L250.748 505.751C254.199 506.743 258.039 504.345 260.241 505.481C260.191 506.801 259.987 507.59 260.81 508.724C268.672 508.711 274.459 509.697 282.144 510.131C282.812 510.169 281.617 511.867 286.157 511.756L286.543 512.707L287.284 512.687C292.521 512.589 294.644 513.597 299.598 514.539C300.547 515.363 302.229 517.148 303.254 517.233C315.952 518.289 332.32 527.951 344.16 532.605C342.392 533.18 343.053 533.074 341.375 532.947C332.175 532.252 321.804 533.721 312.738 533.694C309.483 533.685 298.308 533.556 295.569 533.167C284.973 531.663 288.646 530.591 278.216 532.182C278.003 532.177 277.791 532.173 277.579 532.168C257.606 529.211 237.739 525.858 217.704 523.258C214.624 522.858 208.413 522.843 205.939 521.912C205.02 524.007 205.888 582.514 205.572 588.893C204.737 587.275 205.271 569.565 204.671 565.733C204.176 552.309 204.458 534.323 204.621 520.81C204.486 516.407 204.58 511.836 204.61 507.418L205.623 506.654L205.74 504.994L206.388 504.746L206.566 507.29L207.372 507.032Z"/><path fill="white" transform="matrix(-1.85217 0 0 1.8519 1579.9 -277.785)" d="M204.61 507.418L205.623 506.654L205.74 504.994L206.388 504.746L206.566 507.29L207.372 507.032C207.563 510.456 207.718 515.701 206.718 518.959C206.204 519.495 206.554 519.277 205.545 519.356L206.108 519.526L205.293 518.194C205.073 519.095 205.154 518.821 205.304 519.81L204.793 520.218L204.621 520.81C204.486 516.407 204.58 511.836 204.61 507.418Z"/><path fill="white" transform="matrix(-1.85217 0 0 1.8519 1579.9 -277.785)" d="M344.16 532.605C351.691 534.535 376.79 529.227 386.71 529.083C389.616 529.041 392.48 527.12 398.131 527.218C403.772 527.098 409.093 528.064 414.722 528.876C417.189 529.232 425.559 528.967 427.228 529.785C434.151 533.173 442.636 536.75 449.416 540.457C450.587 541.097 450.141 542.615 452.645 543.26C453.328 544.769 453.277 544.678 453.35 546.346C456.349 543.467 456.818 537.554 460.191 536.373C458.101 540.562 453.316 547.126 455.008 551.509C462.574 571.107 470.347 590.656 477.415 610.443C479.758 617.005 483.835 625.954 485.333 632.503L484.869 633.303C485.74 635.926 488.47 643.985 489.691 646.312C487.333 644.683 481.386 640.194 479.962 637.825C479.053 638.514 479.497 638.325 478.711 638.551C474.015 636.812 472.581 633.034 470.57 632.002C460.517 626.843 450.266 620.928 439.658 617.041C436.19 615.77 436.258 615.111 433.291 613.134L432.262 613.821C425.336 610.264 416.776 604.472 410.865 599.304L410.255 598.766L409.151 599.278C407.3 597.667 408.718 596.938 407.526 595.895C405.488 594.112 402.339 592.495 400.042 590.945C399.811 590.68 399.065 587.772 399.022 587.73C393.918 582.736 389.16 577.644 383.728 572.963C378.487 568.446 375.512 566.388 372.709 559.75C371.913 557.865 360.065 551.098 357.308 550.183C351.659 548.118 346.612 546.717 341.187 545.889C319.849 542.636 299.316 536.328 278.216 532.182C288.646 530.591 284.973 531.663 295.569 533.167C298.308 533.556 309.483 533.685 312.738 533.694C321.804 533.721 332.175 532.252 341.375 532.947C343.053 533.074 342.392 533.18 344.16 532.605Z"/><path fill="white" transform="matrix(-1.85217 0 0 1.8519 1579.9 -277.785)" d="M449.032 814.834L449.738 814.281C454.139 815.641 460.393 820.067 464.475 822.28C475.192 828.091 486.096 834.094 498.352 835.905C502.539 836.524 517.683 836.204 521.731 834.8L521.877 831.734C522.606 831.021 523.386 830.621 524.281 830.143L524.182 829.602C522.967 829.989 522.899 829.837 521.614 829.558L521.437 829.016C526.403 826.034 522.898 826.101 524.528 821.651C524.639 821.348 527.731 817.937 528.676 816.184C526.646 814.422 520.406 809.349 519.081 807.285C514.742 800.531 513.092 788.629 512.668 780.561C512.572 778.745 509.741 774.511 509.39 772.462C508.907 769.411 509.698 766.216 509.395 763.172C507.992 759.086 506.329 756.947 505.88 752.311C502.705 750.538 505.399 750.901 505.704 748.893C506.346 744.661 505.305 740.61 505.817 736.268L506.363 736.087L507.621 736.89L507.774 736.523C507.288 734.724 506.39 732.956 507.978 731.679L509.695 732.272C510.911 731.439 512.212 727.611 512.836 725.991L513.023 727.338C515.356 724.631 511.051 712.64 511.371 706.147L511.418 705.335C513.086 707.931 513.776 711.898 514.837 713.28L515.289 713.299C517.536 717.765 519.751 724.23 521.562 729.06L531.521 755.742C536.266 768.445 541.444 781.208 545.549 793.801C549.883 807.093 558.832 822.853 541.091 830.929C525.878 837.854 502.107 838.923 485.816 833.939C476.363 830.411 458.053 820.158 449.032 814.834Z"/><path fill="white" transform="matrix(-1.85217 0 0 1.8519 1579.9 -277.785)" d="M204.671 565.733C205.271 569.565 204.737 587.275 205.572 588.893C206.248 601.393 204.826 615.491 206.322 627.619C206.755 631.124 210.939 642.317 212.161 646.769C213.78 652.664 211.51 652.35 214.607 655.263C215.279 663.342 207.51 662.201 208.062 669.852C208.2 671.764 214.871 681.584 216.563 683.592C230.83 694.626 248.096 702.518 263.789 711.499C267.745 713.763 280.105 720.744 283.661 722.095C284.065 723.106 284.03 722.743 284.058 723.787C275.796 719.584 265.345 713.696 256.993 708.958C243.598 700.945 227.967 694.628 216.233 684.302C212.429 680.954 207.044 671.898 205.98 666.943C204.535 660.218 205.119 651.668 204.983 644.689C204.467 618.391 204.626 592.039 204.671 565.733Z"/><path fill="white" transform="matrix(-1.85217 0 0 1.8519 1579.9 -277.785)" d="M485.333 632.503C486.833 635.054 491.376 648.145 492.715 651.669C498.269 666.294 504.055 681.143 509.238 695.9C510.154 698.429 515.218 711.554 515.289 713.299L514.837 713.28C513.776 711.898 513.086 707.931 511.418 705.335L511.328 704.697C508.823 702.221 508.395 700.496 507.999 696.92C505.713 692.533 502.879 682.331 501.297 677.077C498.478 667.717 491.798 655.365 489.691 646.312C488.47 643.985 485.74 635.926 484.869 633.303L485.333 632.503Z"/><path fill="white" transform="matrix(-1.85217 0 0 1.8519 1579.9 -277.785)" d="M698.01 399.067C711.42 389.174 726.538 380.102 740.237 370.469C755.532 359.713 771.694 349.578 787.627 339.801C800.499 332.069 813.383 351.909 815.526 362.507C816.402 366.842 816.083 375.529 816.107 380.145L816.011 415.394L815.987 455.89C815.984 461.685 816.303 470.821 815.909 476.228L815.995 608.278L816.032 642.292C816.049 656.546 817.625 665.558 809.057 677.65C802.822 686.447 796.233 690.218 786.927 695.127C780.793 698.775 770.076 705.434 763.914 708.346C757.658 712.413 748.492 717.28 741.839 721.07L694.138 747.897C692.731 749.019 679.588 756.212 677.25 757.54L642.901 776.781C630.685 783.629 608.867 799.506 599.826 778.796C595.727 769.405 592.56 758.87 588.943 749.152L565.655 687.707L535.332 608.339C531.915 599.21 525.688 584.097 523.158 575.594C520.89 570.633 519.042 565.077 517.103 559.945C513.802 551.208 509.892 543.994 509.726 534.519C510.62 527.809 510.617 526.539 515.537 521.801C518.839 519.225 523.017 516.121 526.599 513.983C539.903 506.041 553.118 495.147 566.555 487.687C570.585 484.568 577.068 480.473 581.46 477.527L587.843 473.237C591.579 470.698 597.103 466.617 600.939 464.652L601.265 465.007C602.434 464.802 603.307 464.398 604.425 463.981L603.741 464.502C608.203 463.62 621.702 452.322 626.008 450.925C627.771 450.03 631.729 447.501 632.829 445.918L631.202 445.361L631.34 444.742C641.064 439.247 652.456 430.364 662.657 424.297C665.411 421.596 670.132 418.882 673.363 416.586C681.247 410.983 690.629 405.594 698.241 399.799L698.01 399.067Z"/><path fill="white" transform="matrix(-1.85217 0 0 1.8519 1579.9 -277.785)" d="M515.537 521.801L516.657 523.646C515.771 524.884 514.863 526.127 514.016 527.389C518.015 529.054 534.32 532.077 538.325 532.004C549.933 533.191 561.615 533.711 573.285 534.355C581.38 534.802 591.392 537.718 599.089 538.454C609.337 539.435 615.489 540.255 625.503 542.946C631.874 544.657 643.921 542.587 650.672 544.347C655.836 545.45 666.436 553.891 673.692 554.635C674.981 554.767 686.308 562.662 688.173 564.151C692.373 574.206 697.176 576.785 705.843 582.758C706.564 583.255 711.218 589.658 712.302 590.851C722.398 601.958 730.63 613.286 737.018 626.926C738.184 629.418 740.498 630.738 741.93 633.045C748.121 645.51 757.365 656.389 762.914 669.141C764.919 673.749 765.881 679.233 767.523 684.01C768.967 689.542 771.002 692.405 769.109 698.068C767.407 703.16 766.67 704.059 763.914 708.346C757.658 712.413 748.492 717.28 741.839 721.07L694.138 747.897C692.731 749.019 679.588 756.212 677.25 757.54L642.901 776.781C630.685 783.629 608.867 799.506 599.826 778.796C595.727 769.405 592.56 758.87 588.943 749.152L565.655 687.707L535.332 608.339C531.915 599.21 525.688 584.097 523.158 575.594C520.89 570.633 519.042 565.077 517.103 559.945C513.802 551.208 509.892 543.994 509.726 534.519C510.62 527.809 510.617 526.539 515.537 521.801Z"/><path fill="white" transform="matrix(-1.85217 0 0 1.8519 1579.9 -277.785)" d="M521.01 562.567C524.363 562.932 526.475 563.971 529.726 564.848C552.783 571.019 570.994 586.723 588.939 601.658C592.92 604.971 596.758 609.811 600.704 612.908C612.825 622.42 622.723 631.367 632.684 643.101C639.068 650.621 647.816 658.435 654.403 665.975C659.686 671.424 662.054 674.399 668.714 678.534C672.193 680.694 673.073 686.469 678.625 687.346C681.593 690.791 683.356 695.101 686.086 698.52C690.809 704.375 697.633 707.103 699.468 714.84C700.83 720.585 708.229 720.099 708.318 728.113C708.398 735.294 705.458 737.375 700.096 741.575C697.934 743.269 696.45 745.387 694.287 746.938L694.138 747.897C692.731 749.019 679.588 756.212 677.25 757.54L642.901 776.781C630.685 783.629 608.867 799.506 599.826 778.796C595.727 769.405 592.56 758.87 588.943 749.152L565.655 687.707L535.332 608.339C531.915 599.21 525.688 584.097 523.158 575.594C523.145 570.608 519.91 567.967 521.01 562.567Z"/><path fill="white" transform="matrix(-1.85217 0 0 1.8519 1579.9 -277.785)" d="M509.726 534.519L512.289 537.888C513.135 546.227 520.601 554.72 521.01 562.567C519.91 567.967 523.145 570.608 523.158 575.594C520.89 570.633 519.042 565.077 517.103 559.945C513.802 551.208 509.892 543.994 509.726 534.519Z"/><path fill="white" transform="matrix(-1.85217 0 0 1.8519 1579.9 -277.785)" d="M515.537 521.801L516.657 523.646C515.771 524.884 514.863 526.127 514.016 527.389C512.326 531.536 512.151 533.391 512.289 537.888L509.726 534.519C510.62 527.809 510.617 526.539 515.537 521.801Z"/><path fill="white" transform="matrix(-1.85217 0 0 1.8519 1579.9 -277.785)" d="M698.01 399.067C711.42 389.174 726.538 380.102 740.237 370.469C755.532 359.713 771.694 349.578 787.627 339.801C800.499 332.069 813.383 351.909 815.526 362.507C816.402 366.842 816.083 375.529 816.107 380.145L816.011 415.394L815.987 455.89C815.984 461.685 816.303 470.821 815.909 476.228L815.995 608.278L816.032 642.292C816.049 656.546 817.625 665.558 809.057 677.65C802.822 686.447 796.233 690.218 786.927 695.127C788.943 691.745 800.041 686.59 803.953 682.385C807.006 679.104 812.028 672.066 812.772 667.869C815.353 653.302 814.789 634.152 814.755 619.605L814.049 619.92C811.839 617.917 810.248 606.415 809.04 602.881C806.847 596.547 804.095 590.295 802.007 583.927C798.38 572.868 796.566 561.799 794.518 550.422C793.129 542.702 788.99 534.591 785.995 527.395C785.132 525.321 786.619 519.164 785.17 516.9C782.039 511.267 784.213 506.604 778.191 502.869C778.028 502.768 774.291 491.128 771.462 489.886C771.985 490.115 765.469 483.454 765.002 483.133C761.197 480.517 762.061 478.086 761.87 474.425C756.927 466.497 751.979 457.821 743.449 453.286C740.229 451.574 737.155 448.75 733.939 446.836C733.464 447.778 733.731 447.576 732.972 448.145C732.233 447.495 731.93 447.218 731.399 446.417C730.085 444.433 722.211 442.842 720.763 441.316C715.341 435.606 706.837 437.442 701.491 433.301C700.408 432.461 700.536 432.559 699.291 431.875L698.781 433.293L694.781 429.91C694.391 431.346 694.791 430.859 693.877 431.763C692.742 430.801 691.917 429.814 690.61 429.485L690.429 431.159L689.803 431.271C688.949 430.281 688.823 430.023 687.753 429.306L686.563 429.699L685.907 431.2C684.976 430.53 684.339 429.973 683.472 429.23L683.073 429.508C683.201 430.335 683.281 430.98 683.355 431.813C682.093 431.13 679.916 429.828 678.636 429.543L678.523 431.589L678.035 431.922C675.708 432.191 674.988 431.592 672.743 431.237C672.263 432.028 672.482 431.692 672.648 432.995C670.438 433.817 670.751 431.863 668.489 431.608C668.015 431.555 666.093 433.012 664.353 432.63C662.998 431.539 662.505 431.548 662.106 430.191C662.838 429.851 664.175 430.575 665.22 430.933L665.563 430.52C663.812 429.214 663.97 429.761 663.589 428.097L664.991 428.259L665.489 427.227C664.629 426.404 664.762 426.862 664.738 426.01L666.301 425.64L667.073 424.04L666.716 423.383C663.909 424.537 664.89 424.931 662.657 424.297C665.411 421.596 670.132 418.882 673.363 416.586C681.247 410.983 690.629 405.594 698.241 399.799L698.01 399.067Z"/><path fill="white" transform="matrix(-1.85217 0 0 1.8519 1579.9 -277.785)" d="M814.755 619.605L814.756 528.992C814.746 514.861 813.973 489.395 815.909 476.228L815.995 608.278L816.032 642.292C816.049 656.546 817.625 665.558 809.057 677.65C802.822 686.447 796.233 690.218 786.927 695.127C788.943 691.745 800.041 686.59 803.953 682.385C807.006 679.104 812.028 672.066 812.772 667.869C815.353 653.302 814.789 634.152 814.755 619.605Z"/><path fill="white" transform="matrix(-1.85217 0 0 1.8519 1579.9 -277.785)" d="M626.008 450.925L627.242 451.336C628.62 450.517 629.107 450.088 630.782 450.061C632.914 446.762 637.481 445.513 640.855 442.408C641.846 442.251 642.041 442.183 642.922 441.863L642.642 441.158L643.746 439.794C648.644 439.473 647.196 436.044 651.906 438.304L652.402 436.174L652.972 435.98L654.18 438.137L654.993 438.205C655.149 435.046 653.997 438.042 654.187 433.999C655.611 434.608 655.593 434.981 656.629 436.34L656.985 436.024L657.008 433.745L657.715 433.229L659.348 433.769L659.805 431.642L660.463 431.306C663.858 435.191 661.641 431.156 664.245 433.781C663.49 435.863 659.682 436.512 657.687 437.354L658.249 438.494L656.9 439.484C655.912 438.854 656.351 439.238 655.765 438.119C654.942 440.592 656.72 440.47 655.141 441.43L653.277 440.07C653.464 441.852 654.5 442.27 654.687 444.805L654.159 445.366C653.8 444.571 653.439 443.864 652.788 443.256C652.225 444.447 651.964 444.63 652.052 445.899L651.592 445.296L650.25 445.206L650.578 447.979C647.982 447.987 650.38 446.174 647.755 447.308L647.839 448.449L645.405 448.346L646.566 450.785L646.054 451.188L643.757 450.026L643.223 450.294L643.583 451.674L642.939 452.1L640.739 451.577C640.704 454.389 641.794 453.136 641.031 455.685L640.332 455.954L638.273 454.913L637.447 455.255L637.372 456.135C637.284 457.104 637.257 457.32 636.939 458.269C633.809 458.375 636.112 456.574 633.536 457.779C632.648 459.495 632.201 461.205 630.755 461.785C628.65 461.136 629.172 460.942 627.486 461.545C626.889 462.251 621.383 468.836 621.683 468.785C613.916 470.091 618.701 470.785 616.732 474.46L613.303 474.565C613.374 476.015 613.721 476.668 614.233 478.005C612.568 479.319 610.991 478.93 609.442 477.706C610.617 477.098 610.711 477.164 612.045 476.965L612.337 476.648C611.012 476.545 610.255 476.308 609.086 476.72C608.646 478.936 610.268 479.399 609.312 481.862L608.7 482.465C607.673 481.559 607.941 481.739 607.203 480.491L606.352 480.562C605.244 482.055 605.234 483.419 604.937 485.281C602.947 485.949 602.24 485.72 600.078 485.526C598.969 487.425 600.414 489.267 598.768 489.774C597.179 490.264 596.067 489.543 594.622 490.917L595.312 493.246C593.951 495.495 591.478 493.84 590.148 495.771C590.576 498.123 591.704 499.532 591.168 500.762C589.964 501.122 588.85 501.459 587.658 501.863C587.814 503.376 587.696 502.787 588.651 504.189C588.224 506.832 584.899 506.143 582.305 506.651C582.179 508.205 582.407 509.441 581.576 510.305L577.397 510.193C576.475 512.625 578.71 511.887 577.062 513.8C574.777 514.098 573.214 513.835 570.939 513.614C569.957 515.445 572.123 517.256 570.469 517.383C565.362 517.775 558.599 520.597 553.811 520.264L553.696 522.826C552.66 523.511 552.046 523.352 550.77 523.364C549.58 524.366 549.463 525.102 548.917 526.557C547.56 526.134 546.422 525.471 545.383 525.859C543.782 528.539 543.457 528.903 540.359 529.625L539.86 529.736C539.127 530.676 538.902 530.968 538.325 532.004C534.32 532.077 518.015 529.054 514.016 527.389C514.863 526.127 515.771 524.884 516.657 523.646L515.537 521.801C518.839 519.225 523.017 516.121 526.599 513.983C539.903 506.041 553.118 495.147 566.555 487.687C570.585 484.568 577.068 480.473 581.46 477.527L587.843 473.237C591.579 470.698 597.103 466.617 600.939 464.652L601.265 465.007C602.434 464.802 603.307 464.398 604.425 463.981L603.741 464.502C608.203 463.62 621.702 452.322 626.008 450.925Z"/><path fill="white" transform="matrix(-1.85217 0 0 1.8519 1579.9 -277.785)" d="M581.46 477.527L582.01 479.72C578.585 482.137 573.576 485.896 570.034 487.838C566.515 490.432 562.57 492.198 559.105 494.731C549.319 501.885 539.476 508.771 529.217 515.234C525.151 517.795 520.38 520.637 516.657 523.646L515.537 521.801C518.839 519.225 523.017 516.121 526.599 513.983C539.903 506.041 553.118 495.147 566.555 487.687C570.585 484.568 577.068 480.473 581.46 477.527Z"/><path fill="white" transform="matrix(-1.85217 0 0 1.8519 1579.9 -277.785)" d="M587.843 473.237C587.55 477.345 585.609 477.856 582.01 479.72L581.46 477.527L587.843 473.237Z"/><path fill="white" transform="matrix(-1.85217 0 0 1.8519 1579.9 -277.785)" d="M540.303 387.067C536.2 376.535 530.198 363.847 525.66 353.22L483.23 254.532C477.216 240.265 470.064 225.727 465.035 211.503C460.278 198.049 478.086 191.311 487.869 189.352C500.858 186.752 524.815 186.101 536.821 190.603C552.776 196.585 568.537 206.79 583.42 214.733L655.717 254.223C671.403 262.801 689.119 271.842 704.349 281.155C710.029 283.776 711.494 284.415 715.743 288.926C717.584 295.662 717.611 298.745 711.523 302.977C681.199 324.057 649.347 342.965 618.405 363.087L587.602 383.344C582.46 386.771 569.031 396.177 563.861 397.952C560.503 399.568 554.666 399.74 551.257 398.397C545.055 395.953 542.961 392.534 540.303 387.067Z"/><path fill="white" transform="matrix(-1.85217 0 0 1.8519 1579.9 -277.785)" d="M704.349 281.155C710.029 283.776 711.494 284.415 715.743 288.926C717.584 295.662 717.611 298.745 711.523 302.977C681.199 324.057 649.347 342.965 618.405 363.087L587.602 383.344C582.46 386.771 569.031 396.177 563.861 397.952C560.503 399.568 554.666 399.74 551.257 398.397C545.055 395.953 542.961 392.534 540.303 387.067C546.25 388.059 546.449 398.853 561.092 396.7C566.102 394.892 575.451 388.521 580.414 385.32L616.008 362.029C623.481 357.222 630.547 354.741 637.343 348.701C639.699 346.606 663.282 330.79 665.101 330.685L664.056 332.751C666.66 331.225 668.851 329.24 671.502 327.583C685.258 318.98 699.499 310.728 712.317 300.772C714.403 299.152 716.058 296.441 716.074 293.717C715.92 286.854 707.88 285.399 704.349 281.155Z"/><path fill="white" transform="matrix(-1.85217 0 0 1.8519 1579.9 -277.785)" d="M600.939 464.652C601.079 464.369 691.434 402.348 698.01 399.067L698.241 399.799C690.629 405.594 681.247 410.983 673.363 416.586C670.132 418.882 665.411 421.596 662.657 424.297C652.456 430.364 641.064 439.247 631.34 444.742L631.202 445.361L632.829 445.918C631.729 447.501 627.771 450.03 626.008 450.925C621.702 452.322 608.203 463.62 603.741 464.502L604.425 463.981C603.307 464.398 602.434 464.802 601.265 465.007L600.939 464.652Z"/></g></svg>
